<?xml version="1.0" encoding="UTF-8"?> <svg xmlns="http://www.w3.org/2000/svg" width="70" height="70" viewBox="0 0 70 70" fill="none"><path d="M21.8523 40.1193C21.2898 40.1193 20.7884 40.0227 20.348 39.8295C19.9105 39.6364 19.5625 39.3679 19.304 39.0241C19.0483 38.6776 18.9091 38.2756 18.8864 37.8182H19.9602C19.983 38.0994 20.0795 38.3423 20.25 38.5469C20.4205 38.7486 20.6435 38.9048 20.919 39.0156C21.1946 39.1264 21.5 39.1818 21.8352 39.1818C22.2102 39.1818 22.5426 39.1165 22.8324 38.9858C23.1222 38.8551 23.3494 38.6733 23.5142 38.4403C23.679 38.2074 23.7614 37.9375 23.7614 37.6307C23.7614 37.3097 23.6818 37.027 23.5227 36.7827C23.3636 36.5355 23.1307 36.3423 22.8239 36.2031C22.517 36.0639 22.142 35.9943 21.6989 35.9943H21V35.0568H21.6989C22.0455 35.0568 22.3494 34.9943 22.6108 34.8693C22.875 34.7443 23.081 34.5682 23.2287 34.3409C23.3793 34.1136 23.4545 33.8466 23.4545 33.5398C23.4545 33.2443 23.3892 32.9872 23.2585 32.7685C23.1278 32.5497 22.9432 32.3793 22.7045 32.2571C22.4688 32.1349 22.1903 32.0739 21.8693 32.0739C21.5682 32.0739 21.2841 32.1293 21.017 32.2401C20.7528 32.348 20.5369 32.5057 20.3693 32.7131C20.2017 32.9176 20.1108 33.1648 20.0966 33.4545H19.0739C19.0909 32.9972 19.2287 32.5966 19.4872 32.2528C19.7457 31.9062 20.0838 31.6364 20.5014 31.4432C20.9219 31.25 21.3835 31.1534 21.8864 31.1534C22.4261 31.1534 22.8892 31.2628 23.2756 31.4815C23.6619 31.6974 23.9588 31.983 24.1662 32.3381C24.3736 32.6932 24.4773 33.0767 24.4773 33.4886C24.4773 33.9801 24.348 34.3991 24.0895 34.7457C23.8338 35.0923 23.4858 35.3324 23.0455 35.4659V35.5341C23.5966 35.625 24.027 35.8594 24.3366 36.2372C24.6463 36.6122 24.8011 37.0767 24.8011 37.6307C24.8011 38.1051 24.6719 38.5312 24.4134 38.9091C24.1577 39.2841 23.8082 39.5795 23.3651 39.7955C22.9219 40.0114 22.4176 40.1193 21.8523 40.1193ZM29.4418 40.1193C29.0838 40.1136 28.7259 40.0455 28.3679 39.9148C28.0099 39.7841 27.6832 39.5639 27.3878 39.2543C27.0923 38.9418 26.8551 38.5199 26.6761 37.9886C26.4972 37.4545 26.4077 36.7841 26.4077 35.9773C26.4077 35.2045 26.4801 34.5199 26.625 33.9233C26.7699 33.3239 26.9801 32.8196 27.2557 32.4105C27.5313 31.9986 27.8636 31.6861 28.2528 31.473C28.6449 31.2599 29.0866 31.1534 29.5781 31.1534C30.0668 31.1534 30.5014 31.2514 30.8821 31.4474C31.2656 31.6406 31.5781 31.9105 31.8196 32.2571C32.0611 32.6037 32.2173 33.0028 32.2884 33.4545H31.2486C31.152 33.0625 30.9645 32.7372 30.6861 32.4787C30.4077 32.2202 30.0384 32.0909 29.5781 32.0909C28.902 32.0909 28.3693 32.3849 27.9801 32.973C27.5938 33.5611 27.3991 34.3864 27.3963 35.4489H27.4645C27.6236 35.2074 27.8125 35.0014 28.0312 34.831C28.2528 34.6577 28.4972 34.5241 28.7642 34.4304C29.0313 34.3366 29.3139 34.2898 29.6122 34.2898C30.1122 34.2898 30.5696 34.4148 30.9844 34.6648C31.3991 34.9119 31.7315 35.2543 31.9815 35.6918C32.2315 36.1264 32.3565 36.625 32.3565 37.1875C32.3565 37.7273 32.2358 38.2216 31.9943 38.6705C31.7528 39.1165 31.4134 39.4716 30.9759 39.7358C30.5412 39.9972 30.0298 40.125 29.4418 40.1193ZM29.4418 39.1818C29.7997 39.1818 30.1207 39.0923 30.4048 38.9134C30.6918 38.7344 30.9176 38.4943 31.0824 38.1932C31.25 37.892 31.3338 37.5568 31.3338 37.1875C31.3338 36.8267 31.2528 36.4986 31.0909 36.2031C30.9318 35.9048 30.7116 35.6676 30.4304 35.4915C30.152 35.3153 29.8338 35.2273 29.4759 35.2273C29.206 35.2273 28.9545 35.2812 28.7216 35.3892C28.4886 35.4943 28.2841 35.6392 28.108 35.8239C27.9347 36.0085 27.7983 36.2202 27.6989 36.4588C27.5994 36.6946 27.5497 36.9432 27.5497 37.2045C27.5497 37.5511 27.6307 37.875 27.7926 38.1761C27.9574 38.4773 28.1818 38.7202 28.4659 38.9048C28.7528 39.0895 29.0781 39.1818 29.4418 39.1818ZM37.6289 38.6364L39.913 33.4545H40.8675L38.038 40H37.2198L34.4414 33.4545H35.3789L37.6289 38.6364ZM35.055 33.4545V40H34.0494V33.4545H35.055ZM40.2028 40V33.4545H41.2085V40H40.2028ZM46.6289 38.6364L48.913 33.4545H49.8675L47.038 40H46.2198L43.4414 33.4545H44.3789L46.6289 38.6364ZM44.055 33.4545V40H43.0494V33.4545H44.055ZM49.2028 40V33.4545H50.2085V40H49.2028Z" fill="#252525"></path></svg> 