<?xml version="1.0" encoding="UTF-8"?> <svg xmlns="http://www.w3.org/2000/svg" width="70" height="70" viewBox="0 0 70 70" fill="none"><path d="M21.8523 40.1193C21.2898 40.1193 20.7884 40.0227 20.348 39.8295C19.9105 39.6364 19.5625 39.3679 19.304 39.0241C19.0483 38.6776 18.9091 38.2756 18.8864 37.8182H19.9602C19.983 38.0994 20.0795 38.3423 20.25 38.5469C20.4205 38.7486 20.6435 38.9048 20.919 39.0156C21.1946 39.1264 21.5 39.1818 21.8352 39.1818C22.2102 39.1818 22.5426 39.1165 22.8324 38.9858C23.1222 38.8551 23.3494 38.6733 23.5142 38.4403C23.679 38.2074 23.7614 37.9375 23.7614 37.6307C23.7614 37.3097 23.6818 37.027 23.5227 36.7827C23.3636 36.5355 23.1307 36.3423 22.8239 36.2031C22.517 36.0639 22.142 35.9943 21.6989 35.9943H21V35.0568H21.6989C22.0455 35.0568 22.3494 34.9943 22.6108 34.8693C22.875 34.7443 23.081 34.5682 23.2287 34.3409C23.3793 34.1136 23.4545 33.8466 23.4545 33.5398C23.4545 33.2443 23.3892 32.9872 23.2585 32.7685C23.1278 32.5497 22.9432 32.3793 22.7045 32.2571C22.4688 32.1349 22.1903 32.0739 21.8693 32.0739C21.5682 32.0739 21.2841 32.1293 21.017 32.2401C20.7528 32.348 20.5369 32.5057 20.3693 32.7131C20.2017 32.9176 20.1108 33.1648 20.0966 33.4545H19.0739C19.0909 32.9972 19.2287 32.5966 19.4872 32.2528C19.7457 31.9062 20.0838 31.6364 20.5014 31.4432C20.9219 31.25 21.3835 31.1534 21.8864 31.1534C22.4261 31.1534 22.8892 31.2628 23.2756 31.4815C23.6619 31.6974 23.9588 31.983 24.1662 32.3381C24.3736 32.6932 24.4773 33.0767 24.4773 33.4886C24.4773 33.9801 24.348 34.3991 24.0895 34.7457C23.8338 35.0923 23.4858 35.3324 23.0455 35.4659V35.5341C23.5966 35.625 24.027 35.8594 24.3366 36.2372C24.6463 36.6122 24.8011 37.0767 24.8011 37.6307C24.8011 38.1051 24.6719 38.5312 24.4134 38.9091C24.1577 39.2841 23.8082 39.5795 23.3651 39.7955C22.9219 40.0114 22.4176 40.1193 21.8523 40.1193ZM29.3224 31.1534C29.6804 31.1562 30.0384 31.2244 30.3963 31.358C30.7543 31.4915 31.081 31.7131 31.3764 32.0227C31.6719 32.3295 31.9091 32.7486 32.0881 33.2798C32.267 33.8111 32.3565 34.4773 32.3565 35.2784C32.3565 36.054 32.2827 36.7429 32.1349 37.3452C31.9901 37.9446 31.7798 38.4503 31.5043 38.8622C31.2315 39.2741 30.8991 39.5866 30.5071 39.7997C30.1179 40.0128 29.6776 40.1193 29.1861 40.1193C28.6974 40.1193 28.2614 40.0227 27.8778 39.8295C27.4972 39.6335 27.1847 39.3622 26.9403 39.0156C26.6989 38.6662 26.544 38.2614 26.4759 37.8011H27.5156C27.6094 38.2017 27.7955 38.5327 28.0739 38.794C28.3551 39.0526 28.7259 39.1818 29.1861 39.1818C29.8594 39.1818 30.3906 38.8878 30.7798 38.2997C31.1719 37.7116 31.3679 36.8807 31.3679 35.8068H31.2997C31.1406 36.0455 30.9517 36.2514 30.733 36.4247C30.5142 36.598 30.2713 36.7315 30.0043 36.8253C29.7372 36.919 29.4531 36.9659 29.152 36.9659C28.652 36.9659 28.1932 36.8423 27.7756 36.5952C27.3608 36.3452 27.0284 36.0028 26.7784 35.5682C26.5312 35.1307 26.4077 34.6307 26.4077 34.0682C26.4077 33.5341 26.527 33.0455 26.7656 32.6023C27.0071 32.1562 27.3452 31.8011 27.7798 31.5369C28.2173 31.2727 28.7315 31.1449 29.3224 31.1534ZM29.3224 32.0909C28.9645 32.0909 28.642 32.1804 28.3551 32.3594C28.071 32.5355 27.8452 32.7741 27.6776 33.0753C27.5128 33.3736 27.4304 33.7045 27.4304 34.0682C27.4304 34.4318 27.5099 34.7628 27.669 35.0611C27.831 35.3565 28.0511 35.5923 28.3295 35.7685C28.6108 35.9418 28.9304 36.0284 29.2884 36.0284C29.5582 36.0284 29.8097 35.9759 30.0426 35.8707C30.2756 35.7628 30.4787 35.6165 30.652 35.4318C30.8281 35.2443 30.9659 35.0327 31.0653 34.7969C31.1648 34.5582 31.2145 34.3097 31.2145 34.0511C31.2145 33.7102 31.1321 33.3906 30.9673 33.0923C30.8054 32.794 30.581 32.5526 30.294 32.3679C30.0099 32.1832 29.6861 32.0909 29.3224 32.0909ZM37.6289 38.6364L39.913 33.4545H40.8675L38.038 40H37.2198L34.4414 33.4545H35.3789L37.6289 38.6364ZM35.055 33.4545V40H34.0494V33.4545H35.055ZM40.2028 40V33.4545H41.2085V40H40.2028ZM46.6289 38.6364L48.913 33.4545H49.8675L47.038 40H46.2198L43.4414 33.4545H44.3789L46.6289 38.6364ZM44.055 33.4545V40H43.0494V33.4545H44.055ZM49.2028 40V33.4545H50.2085V40H49.2028Z" fill="#252525"></path></svg> 