<?xml version="1.0" encoding="UTF-8"?> <svg xmlns="http://www.w3.org/2000/svg" width="70" height="70" viewBox="0 0 70 70" fill="none"><path d="M42.1414 29.9429L37.0128 35L42.1414 40.0572C42.2841 40.1908 42.3979 40.3523 42.4757 40.5317C42.5535 40.711 42.5936 40.9045 42.5936 41.1C42.5936 41.2955 42.5535 41.489 42.4757 41.6684C42.3979 41.8477 42.2841 42.0092 42.1414 42.1429C42.0079 42.2753 41.8496 42.38 41.6756 42.4511C41.5015 42.5222 41.3151 42.5582 41.1271 42.5572C40.7524 42.5556 40.3932 42.4068 40.1271 42.1429L34.9986 37.0143L29.9414 42.1429C29.6753 42.4068 29.3162 42.5556 28.9414 42.5572C28.7534 42.5582 28.567 42.5222 28.393 42.4511C28.2189 42.38 28.0606 42.2753 27.9271 42.1429C27.6611 41.8752 27.5117 41.5131 27.5117 41.1357C27.5117 40.7583 27.6611 40.3962 27.9271 40.1286L32.9843 35L27.9271 29.9429C27.6931 29.6696 27.5708 29.318 27.5847 28.9585C27.5986 28.599 27.7476 28.2579 28.002 28.0035C28.2565 27.7491 28.5975 27.6 28.9571 27.5861C29.3166 27.5722 29.6681 27.6945 29.9414 27.9286L34.9986 32.9857L40.0557 27.9286C40.188 27.7916 40.3459 27.6821 40.5205 27.6062C40.6951 27.5303 40.8829 27.4895 41.0733 27.4862C41.2637 27.4828 41.4528 27.517 41.6299 27.5868C41.8071 27.6566 41.9687 27.7606 42.1057 27.8929C42.2426 28.0251 42.3522 28.1831 42.4281 28.3577C42.504 28.5323 42.5448 28.7201 42.5481 28.9105C42.5514 29.1008 42.5172 29.29 42.4474 29.4671C42.3777 29.6443 42.2737 29.8059 42.1414 29.9429ZM49.1414 49.1429C46.3443 51.9397 42.7806 53.8443 38.9011 54.6159C35.0215 55.3874 31.0003 54.9912 27.3459 53.4774C23.6915 51.9636 20.568 49.4001 18.3705 46.1112C16.1729 42.8223 15 38.9555 15 35C15 31.0445 16.1729 27.1778 18.3705 23.8888C20.568 20.5999 23.6915 18.0364 27.3459 16.5226C31.0003 15.0088 35.0215 14.6126 38.9011 15.3842C42.7806 16.1557 46.3443 18.0603 49.1414 20.8572C50.9988 22.7144 52.4722 24.9192 53.4774 27.3459C54.4826 29.7725 55 32.3734 55 35C55 37.6266 54.4826 40.2275 53.4774 42.6541C52.4722 45.0808 50.9988 47.2857 49.1414 49.1429ZM47.1271 22.8714C44.7273 20.4799 41.6726 18.8531 38.3489 18.1965C35.0251 17.5399 31.5813 17.8828 28.4523 19.1821C25.3233 20.4813 22.6495 22.6786 20.7685 25.4964C18.8874 28.3143 17.8835 31.6263 17.8835 35.0143C17.8835 38.4023 18.8874 41.7143 20.7685 44.5322C22.6495 47.35 25.3233 49.5473 28.4523 50.8465C31.5813 52.1458 35.0251 52.4887 38.3489 51.8321C41.6726 51.1755 44.7273 49.5487 47.1271 47.1572C48.7253 45.5645 49.9934 43.6721 50.8586 41.5883C51.7238 39.5046 52.1692 37.2705 52.1692 35.0143C52.1692 32.7581 51.7238 30.524 50.8586 28.4403C49.9934 26.3565 48.7253 24.4641 47.1271 22.8714Z" fill="#252525"></path></svg> 